# xmcd
#
# Track frame offsets:
#	150
#	11824
#	25653
#	41493
#	52140
#	67035
#	78312
#	91313
#	102951
#	118849
#	134139
#	145474
#	156353
#	171370
#
# Disc length: 2430 seconds
#
# Revision: 0
# Processed by: cddbd v1.5.2PL0 Copyright (c) Steve Scherf et al.
# Submitted via: dBpowerAMP V4.0
#
DISCID=cc097c0e
DTITLE=Jan Rasmussen 3 - Bedre Sent End Aldrig 3
DYEAR=1997
DGENRE=Country
TTITLE0=Fyld mit hjerte med søde ord
TTITLE1=Giv mig et smil
TTITLE2=Find glæden igen
TTITLE3=Kom ind i mit hjerte
TTITLE4=En dejlig sommerdag
TTITLE5=Jeg forstår dig nu
TTITLE6=I skoven med min ven
TTITLE7=Du og jeg
TTITLE8=Det er forår
TTITLE9=Hus til salg
TTITLE10=Pigen på stranden
TTITLE11=Jeg nyder dine blomster
TTITLE12=Så tag dog ud
TTITLE13=Rejs ikke fra mig
EXTD=Jan Rasmussen - Bedre Sent End Aldrig 3
EXTT0=
EXTT1=
EXTT2=
EXTT3=
EXTT4=
EXTT5=
EXTT6=
EXTT7=
EXTT8=
EXTT9=
EXTT10=
EXTT11=
EXTT12=
EXTT13=
PLAYORDER=
